<svg xmlns="http://www.w3.org/2000/svg" xmlns:xlink="http://www.w3.org/1999/xlink" width="116.487" height="137" viewBox="0 0 116.487 137">
  <defs>
    <clipPath id="clip-path">
      <rect id="Rectángulo_460993" data-name="Rectángulo 460993" width="77.661" height="77.608" fill="#19538d"/>
    </clipPath>
  </defs>
  <g id="Grupo_1211924" data-name="Grupo 1211924" transform="translate(-245.736 -5520.879)">
    <path id="Sustracción_110" data-name="Sustracción 110" d="M0,0H116.487V137H0Z" transform="translate(245.736 5520.879)" fill="#9ecfff"/>
    <g id="Grupo_1211925" data-name="Grupo 1211925" transform="translate(264.736 5550.878)">
      <g id="Grupo_1211565" data-name="Grupo 1211565" clip-path="url(#clip-path)">
        <path id="Trazado_1274933" data-name="Trazado 1274933" d="M46.46,53.453l-.788-2.384A2.063,2.063,0,0,1,46.1,49.01l2.926-2.931a2.163,2.163,0,0,1,1.848-.465l2.552.83,1.672-.7,1.216-2.414A2.2,2.2,0,0,1,57.8,42.4l4.321-.007a2.091,2.091,0,0,1,1.747,1.168L64.917,45.7l1.7.749,2.436-.851,1.629.176V11.69l-52.365,0a1.282,1.282,0,0,1-1.226-.931A1.217,1.217,0,0,1,18.129,9.4l52.527,0,.033-5.187a1.982,1.982,0,0,0-1.994-1.976l-64.412,0A1.93,1.93,0,0,0,2.275,4.028L2.233,9.394l10.84.016c.386,0,.9.62.98.955.088.376-.358,1.3-.833,1.3l-10.978.041.007,47.637a2,2,0,0,0,2.182,1.91l12.708-.018a1.233,1.233,0,0,1,1.327.962,1.159,1.159,0,0,1-1.2,1.332L3.914,63.491A4.081,4.081,0,0,1,0,59.375L.006,4.033A4.1,4.1,0,0,1,4.252,0l64.9.021c2.191,0,3.807,2.155,3.808,4.212l.013,43.895c.777.555,1.763,1.5,1.526,2.312l-.864,2.975.611,1.619,2.374,1.221a2.169,2.169,0,0,1,1.043,1.77l0,4.093a2.131,2.131,0,0,1-.952,1.619L74.3,64.97,73.611,66.7l.832,2.438a2.159,2.159,0,0,1-.363,1.765l-3.431,3.362c-1,.979-3.095-1.056-4.821-.381-1.815.711-1.783,3.714-3.3,3.716l-4.9.007c-1.646,0-1.647-3.014-3.322-3.705-2.093-.864-3.542,1.857-5.614-.241l-2.548-2.581a2.1,2.1,0,0,1-.508-2.04l.814-2.446L45.708,64.9,42.93,63.526H22.779a1.283,1.283,0,0,1-1.213-.915c-.109-.49.312-1.362.941-1.362l19.876-.008.04-3.431a2.064,2.064,0,0,1,1.233-1.672l2.1-1.047ZM61.9,75.386c1.168-3.022,1.774-3.166,4.647-4.17l3.093.942,2.532-2.536-.879-2.937c-.089-.3.855-3.2,1.871-3.713l2.255-1.138-.034-3.677a17.8,17.8,0,0,1-2.808-1.509c-1.482-2.706-1.6-3.293-.387-6.147L69.573,47.86c-.93.253-2.027.941-3.059.83A6.8,6.8,0,0,1,63.421,47.4c-.765-.638-1.047-1.844-1.553-2.716l-3.725.02c-1.095,2.867-1.806,3.234-4.733,4.11l-2.917-.935-2.617,2.612.919,2.919c-.834,2.905-1.224,3.658-4.109,4.73l-.024,3.678,2.819,1.493c1.326,2.735,1.715,3.276.37,6.218l2.619,2.632,3.111-.961L56.7,72.538l1.477,2.852Z" transform="translate(0 0)" fill="#19538d"/>
        <path id="Trazado_1274934" data-name="Trazado 1274934" d="M161.227,101.907a2.585,2.585,0,0,1-2.433,2.483l-6.479.022a1.551,1.551,0,0,1,.487,1.864,1.2,1.2,0,0,1-1.71.219l-2.4-2.368a1.333,1.333,0,0,1-.038-1.6l2.514-2.489a1.185,1.185,0,0,1,1.668.314c.256.56.1,1.1-.524,1.778l6.622,0,.1-4.918a2.551,2.551,0,0,1,2.425-2.107l5.724-.048.009-4.733-6.011-.017c-1.455,0-3.229-1.3-3.229-2.877l0-10.676c0-1.574,1.79-2.867,3.222-2.872l5.639-.017a1.29,1.29,0,0,1,1.178.99,1.207,1.207,0,0,1-1.18,1.309l-6.093.045a2.293,2.293,0,0,0-.467,2.4l13.971,0a6.014,6.014,0,0,0-.1-1.917c-.207-.882-2.193-.15-2.872-.933a1.394,1.394,0,0,1-.067-1.368,1.973,1.973,0,0,1,1.366-.553,3.606,3.606,0,0,1,4.021,3.576l-.019,9.579a3.412,3.412,0,0,1-3.3,3.3l-3.777.042-.071,4.879c-.019,1.288-1.5,2.143-2.61,2.147l-5.5.017ZM173.11,88.075a1.292,1.292,0,0,0,1.157-1.148l-.014-6.046-14.125.007,0,5.879a1.314,1.314,0,0,0,1.319,1.3Z" transform="translate(-115.382 -57.397)" fill="#19538d"/>
        <path id="Trazado_1274935" data-name="Trazado 1274935" d="M78.57,83.01a1.265,1.265,0,0,1-1.843.086,1.556,1.556,0,0,1,.268-1.93l-5.427-.028.008,5.914a3.443,3.443,0,0,1-3.327,3.5l-11.8.027a3.508,3.508,0,0,1-3.56-3.329l0-9.832a3.378,3.378,0,0,1,3.143-3.266l12.435.026c2.316,0,3.508,2.435,3.037,4.655l5.509.018a1.712,1.712,0,0,1-.3-1.963,1.224,1.224,0,0,1,1.835.042L80.8,79.215a1.339,1.339,0,0,1-.021,1.569Zm-9.386-4.154c.358-.646.208-2.155-.581-2.4l-12.842-.007a2.412,2.412,0,0,0-.538,2.412Zm-1.045,9.478a1.366,1.366,0,0,0,1.2-1.311L69.3,81.139l-14.154,0,0,5.879a1.307,1.307,0,0,0,1.33,1.3Z" transform="translate(-41.117 -57.654)" fill="#19538d"/>
        <path id="Trazado_1274936" data-name="Trazado 1274936" d="M68.469,196.464l-12.482.007a3.671,3.671,0,0,1-3.167-3.091V183.137a3.417,3.417,0,0,1,3.154-3.083l12.224-.006a3.392,3.392,0,0,1,3.327,3.522l-.005,9.367a3.5,3.5,0,0,1-3.05,3.527m.787-11.756c.174-1.572-.1-1.983-.9-2.434l-12.47.079c-.88.006-.978,1.711-.69,2.369Zm-1.022,9.422a1.22,1.22,0,0,0,1.03-.99l.008-6.149H55.1l-.008,6.152a1.33,1.33,0,0,0,1.078.989Z" transform="translate(-41.065 -139.985)" fill="#19538d"/>
        <path id="Trazado_1274937" data-name="Trazado 1274937" d="M256.329,22.252a1.137,1.137,0,1,1-1.137-1.137,1.137,1.137,0,0,1,1.137,1.137" transform="translate(-197.524 -16.417)" fill="#19538d"/>
        <path id="Trazado_1274938" data-name="Trazado 1274938" d="M277.522,22.256a1.136,1.136,0,1,1-1.136-1.135,1.136,1.136,0,0,1,1.136,1.135" transform="translate(-214.004 -16.421)" fill="#19538d"/>
        <path id="Trazado_1274939" data-name="Trazado 1274939" d="M298.7,22.246a1.131,1.131,0,1,1-1.132-1.131,1.132,1.132,0,0,1,1.132,1.131" transform="translate(-230.474 -16.417)" fill="#19538d"/>
        <path id="Trazado_1274940" data-name="Trazado 1274940" d="M249.308,241.072a8.2,8.2,0,1,1-8.2-8.2,8.2,8.2,0,0,1,8.2,8.2m-2.344,1.2a5.964,5.964,0,1,0-11.7,0Zm-1.253,2.322-9.318-.012a5.626,5.626,0,0,0,4.667,2.407,5.173,5.173,0,0,0,4.651-2.4" transform="translate(-181.08 -181.054)" fill="#19538d"/>
      </g>
    </g>
  </g>
</svg>
